<svg xmlns="http://www.w3.org/2000/svg" width="1500" height="800" viewBox="0 0 1500 800" role="img" aria-labelledby="title desc"><title id="title">新增 Issue 测试集：版本与推理等级趋势</title><desc id="desc">52 个案例 / 58 个逻辑 turn · 明文 · 容量中断断点续跑</desc><rect width="1500" height="800" fill="#0B1120"/><rect x="70" y="105" width="1370" height="590" rx="14" fill="#111827" stroke="#334155"/><g font-family="-apple-system,BlinkMacSystemFont,Segoe UI,PingFang SC,Hiragino Sans GB,Arial,sans-serif"><text x="750" y="57" text-anchor="middle" font-size="30" font-weight="700" fill="#E2E8F0">新增 Issue 测试集：版本与推理等级趋势</text><text x="750" y="88" text-anchor="middle" font-size="17" fill="#94A3B8">52 个案例 / 58 个逻辑 turn · 明文 · 容量中断断点续跑</text><line x1="125" y1="645.0" x2="1370" y2="645.0" stroke="#334155"/><text x="107" y="650.0" text-anchor="end" font-size="15" fill="#E2E8F0">0</text><text x="1388" y="650.0" font-size="15" fill="#E2E8F0">0%</text><line x1="125" y1="521.2" x2="1370" y2="521.2" stroke="#334155"/><text x="107" y="526.2" text-anchor="end" font-size="15" fill="#E2E8F0">13</text><text x="1388" y="526.2" font-size="15" fill="#E2E8F0">25%</text><line x1="125" y1="397.5" x2="1370" y2="397.5" stroke="#334155"/><text x="107" y="402.5" text-anchor="end" font-size="15" fill="#E2E8F0">26</text><text x="1388" y="402.5" font-size="15" fill="#E2E8F0">50%</text><line x1="125" y1="273.8" x2="1370" y2="273.8" stroke="#334155"/><text x="107" y="278.8" text-anchor="end" font-size="15" fill="#E2E8F0">39</text><text x="1388" y="278.8" font-size="15" fill="#E2E8F0">75%</text><line x1="125" y1="150.0" x2="1370" y2="150.0" stroke="#334155"/><text x="107" y="155.0" text-anchor="end" font-size="15" fill="#E2E8F0">52</text><text x="1388" y="155.0" font-size="15" fill="#E2E8F0">100%</text><line x1="125" y1="150" x2="125" y2="645" stroke="#64748B" stroke-width="1.5"/><line x1="125" y1="645" x2="1370" y2="645" stroke="#64748B" stroke-width="1.5"/><line x1="125.0" y1="645" x2="125.0" y2="651" stroke="#64748B"/><text x="125.0" y="676" text-anchor="middle" font-size="15" fill="#E2E8F0">v5</text><line x1="540.0" y1="645" x2="540.0" y2="651" stroke="#64748B"/><text x="540.0" y="676" text-anchor="middle" font-size="15" fill="#E2E8F0">v24</text><line x1="955.0" y1="645" x2="955.0" y2="651" stroke="#64748B"/><text x="955.0" y="676" text-anchor="middle" font-size="15" fill="#E2E8F0">v35</text><line x1="1370.0" y1="645" x2="1370.0" y2="651" stroke="#64748B"/><text x="1370.0" y="676" text-anchor="middle" font-size="15" fill="#E2E8F0">v41（最新）</text><text x="747.5" y="730" text-anchor="middle" font-size="17" fill="#E2E8F0">提示词版本</text><text x="30" y="397" transform="rotate(-90 30 397)" text-anchor="middle" font-size="17" fill="#E2E8F0">通过案例数（共 52 个）</text><polyline points="125.0,150.0 540.0,159.5 955.0,273.8 1370.0,150.0" fill="none" stroke="#2563EB" stroke-width="4" stroke-linecap="round" stroke-linejoin="round"/><circle cx="125.0" cy="150.0" r="7" fill="#2563EB" stroke="#0B1120" stroke-width="2"/><text x="125.0" y="136.0" text-anchor="middle" font-size="13" font-weight="700" fill="#2563EB">52</text><circle cx="540.0" cy="159.5" r="7" fill="#2563EB" stroke="#0B1120" stroke-width="2"/><text x="540.0" y="145.5" text-anchor="middle" font-size="13" font-weight="700" fill="#2563EB">51</text><circle cx="955.0" cy="273.8" r="7" fill="#2563EB" stroke="#0B1120" stroke-width="2"/><text x="955.0" y="259.8" text-anchor="middle" font-size="13" font-weight="700" fill="#2563EB">39</text><circle cx="1370.0" cy="150.0" r="7" fill="#2563EB" stroke="#0B1120" stroke-width="2"/><text x="1370.0" y="136.0" text-anchor="middle" font-size="13" font-weight="700" fill="#2563EB">52</text><polyline points="125.0,150.0 540.0,150.0 955.0,273.8 1370.0,150.0" fill="none" stroke="#F59E0B" stroke-width="4" stroke-linecap="round" stroke-linejoin="round"/><rect x="118.0" y="143.0" width="14" height="14" rx="2" fill="#F59E0B" stroke="#0B1120" stroke-width="2"/><text x="125.0" y="178.0" text-anchor="middle" font-size="13" font-weight="700" fill="#F59E0B">52</text><rect x="533.0" y="143.0" width="14" height="14" rx="2" fill="#F59E0B" stroke="#0B1120" stroke-width="2"/><text x="540.0" y="178.0" text-anchor="middle" font-size="13" font-weight="700" fill="#F59E0B">52</text><rect x="948.0" y="266.8" width="14" height="14" rx="2" fill="#F59E0B" stroke="#0B1120" stroke-width="2"/><text x="955.0" y="301.8" text-anchor="middle" font-size="13" font-weight="700" fill="#F59E0B">39</text><rect x="1363.0" y="143.0" width="14" height="14" rx="2" fill="#F59E0B" stroke="#0B1120" stroke-width="2"/><text x="1370.0" y="178.0" text-anchor="middle" font-size="13" font-weight="700" fill="#F59E0B">52</text><polyline points="125.0,169.0 540.0,150.0 955.0,264.2 1370.0,150.0" fill="none" stroke="#16A34A" stroke-width="4" stroke-linecap="round" stroke-linejoin="round"/><path d="M 125.0 161.0 L 117.0 176.0 L 133.0 176.0 Z" fill="#16A34A" stroke="#0B1120" stroke-width="2"/><text x="125.0" y="214.0" text-anchor="middle" font-size="13" font-weight="700" fill="#16A34A">50</text><path d="M 540.0 142.0 L 532.0 157.0 L 548.0 157.0 Z" fill="#16A34A" stroke="#0B1120" stroke-width="2"/><text x="540.0" y="195.0" text-anchor="middle" font-size="13" font-weight="700" fill="#16A34A">52</text><path d="M 955.0 256.2 L 947.0 271.2 L 963.0 271.2 Z" fill="#16A34A" stroke="#0B1120" stroke-width="2"/><text x="955.0" y="309.2" text-anchor="middle" font-size="13" font-weight="700" fill="#16A34A">40</text><path d="M 1370.0 142.0 L 1362.0 157.0 L 1378.0 157.0 Z" fill="#16A34A" stroke="#0B1120" stroke-width="2"/><text x="1370.0" y="195.0" text-anchor="middle" font-size="13" font-weight="700" fill="#16A34A">52</text><line x1="1010" y1="610" x2="1044" y2="610" stroke="#2563EB" stroke-width="4"/><text x="1055" y="615" font-size="16" fill="#E2E8F0">low</text><line x1="1155" y1="610" x2="1189" y2="610" stroke="#F59E0B" stroke-width="4"/><text x="1200" y="615" font-size="16" fill="#E2E8F0">medium</text><line x1="1300" y1="610" x2="1334" y2="610" stroke="#16A34A" stroke-width="4"/><text x="1345" y="615" font-size="16" fill="#E2E8F0">high</text><text x="750" y="777" text-anchor="middle" font-size="14" fill="#94A3B8">一个多轮案例仅在全部 turn 通过时计为通过；503 no available account 记为 interrupted，续跑后再计分。</text></g></svg>
